<svg width="1280" height="320" viewBox="0 0 1280 320" fill="none" xmlns="http://www.w3.org/2000/svg">
    <path d="M255.85 160.06C255.79 212.94 212.61 256.02 159.73 255.95C106.89 255.88 63.85 212.68 63.91 159.76C63.97 106.88 107.15 63.8 160.03 63.87C212.87 63.94 255.91 107.14 255.85 160.06ZM151.37 112.78C133.5 113.5 117.84 117.27 101.32 120.7C98.32 121.32 93 123.5 94.18 131.59C96.5 140 103 138 105.39 137.51C106.5 137.282 108.52 136.69 110.14 136.37C145.64 129.31 180.29 130.7 213.33 147.08C219.14 149.96 225.17 152.3 228.87 145.19C232.87 137.5 227.06 133.86 221 130.8C199.17 119.78 176 112.78 151.36 112.77L151.37 112.78ZM143.41 146.64C130 147.08 121.1 149.94 109.99 151.85C104.5 152.79 98.64 154.7 100.58 161.88C102.51 169.03 108.46 167.26 113.82 165.99C144.5 158.72 173.97 162.05 202.07 176.46C206.78 178.88 211.84 181.45 215.16 175.67C218.75 169.42 213.97 166.05 208.9 163.33C188.49 152.38 166.59 147.75 143.4 146.64H143.41ZM140.64 178.88C135.09 179.55 126.48 180.27 117.99 181.71C112.57 182.63 103.38 181.41 104.69 189.72C106.18 199.23 115.05 194.09 120.42 193.29C145.61 189.52 169.95 190.29 193.1 202.61C195.75 204.02 199.5 205.5 203.55 202.11C205 195.5 200.88 193.92 198.1 192.26C181.42 182.34 162.92 178.98 140.65 178.88H140.64Z" fill="url(#paint0_linear_212_357)"/>
    <path d="M858.12 159.87C858.12 187.53 858.02 215.2 858.18 242.86C858.22 250.45 856.91 256.02 847.53 256.03C838.25 256.03 836.6 250.5 836.6 242.93C836.65 187.6 836.65 132.28 836.6 76.9501C836.6 69.4201 838.14 63.8001 847.45 63.7801C856.78 63.7601 858.22 69.2401 858.17 76.8801C858 104.54 858.1 132.21 858.11 159.87H858.12Z" fill="url(#paint1_linear_212_357)"/>
    <path d="M757.41 159.98C757.41 132.34 757.49 104.69 757.36 77.0499C757.32 69.5499 758.49 63.8199 767.91 63.7899C777.26 63.7599 778.63 69.3099 778.61 76.9099C778.51 132.2 778.51 187.48 778.61 242.77C778.62 250.27 777.48 256 768.06 256.03C758.71 256.06 757.31 250.51 757.35 242.91C757.5 215.27 757.41 187.62 757.41 159.98Z" fill="url(#paint2_linear_212_357)"/>
    <path d="M1075.48 158.83C1075.48 131.52 1075.56 104.21 1075.43 76.9001C1075.39 69.3501 1076.73 63.7301 1086.13 63.7801C1095.56 63.8301 1096.68 69.5701 1096.67 77.0601C1096.57 132.34 1096.57 187.63 1096.67 242.91C1096.68 250.5 1095.32 256.05 1085.97 256.03C1076.49 256.01 1075.41 250.2 1075.44 242.75C1075.55 214.78 1075.49 186.8 1075.49 158.83H1075.48Z" fill="url(#paint3_linear_212_357)"/>
    <path d="M359.79 159.45C359.79 135.8 359.89 112.15 359.73 88.4999C359.68 81.0799 360.53 75.2799 370.12 75.1899C379.28 75.1099 381.35 80.1599 381.34 87.9099C381.27 135.88 381.27 183.84 381.34 231.81C381.35 239.51 379.41 244.67 370.21 244.62C360.67 244.56 359.68 238.88 359.74 231.4C359.9 207.42 359.8 183.43 359.8 159.45H359.79Z" fill="url(#paint4_linear_212_357)"/>
    <path d="M518.56 159.95C518.56 135.97 518.62 111.98 518.52 88.0002C518.49 80.3102 520.38 75.0502 529.63 75.1902C538.21 75.3202 540.18 79.9202 540.14 87.4102C539.97 119.05 540.07 150.7 540.07 182.34C540.07 198.66 539.93 214.99 540.13 231.31C540.22 238.78 539.23 244.47 529.71 244.62C519.66 244.78 518.48 238.74 518.52 230.9C518.64 207.25 518.56 183.6 518.56 159.95Z" fill="url(#paint5_linear_212_357)"/>
    <path d="M659.61 159.88C659.6 183.2 659.53 206.53 659.64 229.85C659.68 237.76 659.39 244.74 648.5 244.62C638.24 244.5 637.9 238 637.91 230.4C638.01 183.09 638.02 135.77 637.9 88.4599C637.88 80.9199 639.05 75.3199 648.45 75.1899C657.6 75.0599 659.71 80.1299 659.67 87.9199C659.55 111.91 659.63 135.9 659.61 159.89V159.88Z" fill="url(#paint6_linear_212_357)"/>
    <path d="M977.67 160.95C977.67 184.27 977.59 207.59 977.71 230.91C977.75 238.78 976.47 244.78 966.47 244.62C957.04 244.47 955.93 238.81 955.95 231.32C956.06 183.68 956.06 136.05 955.95 88.41C955.93 80.85 957.18 75.31 966.56 75.2C976.61 75.08 977.74 81.19 977.7 89C977.59 112.98 977.66 136.97 977.66 160.95H977.67Z" fill="url(#paint7_linear_212_357)"/>
    <path d="M995.89 159.82C995.89 135.84 996.04 111.85 995.8 87.8699C995.72 79.9299 997.75 75.0899 1006.86 75.1799C1015.56 75.2699 1017.43 80.2999 1017.42 87.5299C1017.38 135.83 1017.38 184.13 1017.42 232.43C1017.42 239.75 1015.33 244.58 1006.7 244.62C997.48 244.66 995.73 239.59 995.8 231.77C996.03 207.79 995.88 183.8 995.88 159.82H995.89Z" fill="url(#paint8_linear_212_357)"/>
    <path d="M598.1 159.37C598.1 139.4 598.22 119.44 598.04 99.4701C597.97 91.8601 599.56 86.2301 608.71 86.1501C617.62 86.0801 619.88 91.1801 619.86 99.0401C619.73 139.64 619.73 180.23 619.86 220.83C619.89 228.74 617.52 233.75 608.64 233.65C599.46 233.54 597.98 227.82 598.04 220.26C598.21 199.96 598.1 179.66 598.1 159.37Z" fill="url(#paint9_linear_212_357)"/>
    <path d="M699.33 159.86C699.33 176.49 699.23 193.12 699.38 209.74C699.45 217.61 697.07 222.52 688.04 222.32C679.39 222.12 677.74 217.16 677.78 209.84C677.93 176.58 677.92 143.33 677.78 110.07C677.75 102.81 679.25 97.7301 687.95 97.4901C696.93 97.2501 699.46 102.04 699.38 109.97C699.23 126.6 699.33 143.23 699.34 159.85L699.33 159.86Z" fill="url(#paint10_linear_212_357)"/>
    <path d="M399.6 159.59C399.6 142.64 399.71 125.69 399.55 108.74C399.48 101.46 402.19 97.5598 409.98 97.4898C417.64 97.4198 420.85 101.02 420.84 108.37C420.81 142.6 420.79 176.84 420.87 211.07C420.89 218.98 417.41 222.6 409.35 222.32C401.28 222.05 399.48 217.37 399.54 210.45C399.69 193.5 399.59 176.55 399.59 159.6L399.6 159.59Z" fill="url(#paint11_linear_212_357)"/>
    <path d="M1035.75 159.98C1035.75 143.03 1035.88 126.07 1035.69 109.12C1035.61 102.01 1037.74 97.6899 1045.7 97.4799C1053.9 97.2599 1057.04 101.23 1057.02 108.97C1056.95 142.88 1056.95 176.79 1057.02 210.69C1057.04 218.34 1054.14 222.52 1045.84 222.33C1037.95 222.15 1035.6 218.03 1035.68 210.83C1035.88 193.88 1035.74 176.92 1035.74 159.97L1035.75 159.98Z" fill="url(#paint12_linear_212_357)"/>
    <path d="M1136.37 159.37C1136.37 176.32 1136.24 193.27 1136.43 210.22C1136.52 217.7 1134.37 222.29 1125.84 222.34C1117.29 222.38 1115.08 217.69 1115.09 210.29C1115.16 176.72 1115.16 143.16 1115.09 109.59C1115.07 102.23 1117.17 97.4498 1125.77 97.4698C1134.26 97.4998 1136.52 101.98 1136.43 109.52C1136.23 126.13 1136.37 142.75 1136.37 159.37Z" fill="url(#paint13_linear_212_357)"/>
    <path d="M500.22 159.1C500.22 172.74 500.04 186.38 500.29 200.01C500.43 207.52 497.22 211.18 489.75 211.23C482.26 211.28 478.94 207.48 478.95 200.12C479.01 173.51 479.04 146.9 478.92 120.29C478.89 112.52 482.09 108.38 490.14 108.57C497.79 108.75 500.44 112.89 500.29 120.19C500.02 133.16 500.21 146.13 500.21 159.1H500.22Z" fill="url(#paint14_linear_212_357)"/>
    <path d="M579.94 160.39C579.94 170.06 579.88 179.72 579.96 189.39C580.02 196.37 576.79 199.78 569.72 199.97C562.28 200.17 558.36 196.9 558.33 189.42C558.27 169.76 558.27 150.09 558.33 130.43C558.35 122.96 562.24 119.65 569.69 119.85C576.75 120.04 580.01 123.42 579.96 130.4C579.89 140.4 579.94 150.4 579.94 160.4V160.39Z" fill="url(#paint15_linear_212_357)"/>
    <path d="M717.66 159.1C717.66 149.45 717.73 139.8 717.64 130.16C717.57 123.08 720.99 119.94 728 119.83C734.98 119.71 738.8 122.8 738.84 129.77C738.96 149.73 738.93 169.69 738.87 189.65C738.85 197.21 734.77 200.26 727.39 199.98C720.13 199.7 717.53 195.84 717.62 189.05C717.76 179.07 717.66 169.09 717.66 159.11V159.1Z" fill="url(#paint16_linear_212_357)"/>
    <path d="M319.91 160.5C319.91 144.92 323.02 140.71 332.99 142.35C343.02 144 341.84 150.2 341.37 168.46C341.17 176.3 335.46 178.23 328.78 177.47C317.07 176.12 320.6 166.83 319.91 160.5Z" fill="url(#paint17_linear_212_357)"/>
    <path d="M898 159.16C898 174.74 895.65 178.25 886.09 177.57C876.76 176.9 874.12 169.55 876.37 151.55C877.43 143.1 882.97 141.34 889.89 142.45C900.71 144.19 897.32 153.08 898 159.17V159.16Z" fill="url(#paint18_linear_212_357)"/>
    <path d="M1216.05 158.61C1216.05 174.78 1213.7 178.36 1204.14 177.53C1192.61 176.54 1194.18 169.5 1194.58 151.53C1194.77 143.01 1201.08 141.33 1207.97 142.43C1218.81 144.16 1215.26 153.12 1216.05 158.61Z" fill="url(#paint19_linear_212_357)"/>
    <path d="M937.85 160.22C937.85 174.78 934.46 179.23 924.48 177.44C914.85 175.71 915.77 170.14 916.35 151.15C916.59 143.19 922.48 141.67 929.07 142.35C936.53 143.11 937.86 146.01 937.85 160.22Z" fill="url(#paint20_linear_212_357)"/>
    <path d="M1176.18 159.36C1176.18 174.85 1173.7 178.47 1164.14 177.54C1153.39 176.49 1154.18 169.72 1154.9 151.29C1155.23 142.74 1161.73 141.27 1168.49 142.49C1179.28 144.43 1175.3 153.48 1176.18 159.37V159.36Z" fill="url(#paint21_linear_212_357)"/>
    <path d="M818.31 160.67C818.31 174.96 815.3 179.44 805.84 177.19C802.44 176.38 798.43 171.97 797.48 168.45C796.06 163.22 796.98 157.32 797.13 151.71C797.33 144.54 801.65 142.05 808.27 142.21C814.56 142.37 818.25 145.1 818.3 151.74C818.32 154.71 818.3 157.68 818.31 160.66V160.67Z" fill="url(#paint22_linear_212_357)"/>
    <path d="M460.5 160.65C460.48 174.84 458.09 178.27 448.68 177.55C439.46 176.84 437.25 170.07 439.37 151.17C440.3 142.88 445.67 141.72 452.15 142.38C459.45 143.13 460.51 145.76 460.49 160.65H460.5Z" fill="url(#paint23_linear_212_357)"/>
    <defs>
    <linearGradient id="paint0_linear_212_357" x1="159.88" y1="63.8699" x2="159.88" y2="255.95" gradientUnits="userSpaceOnUse">
    <stop stop-color="#62D4FA"/>
    <stop offset="0.421956" stop-color="#61C2F9"/>
    <stop offset="0.843831" stop-color="#8BACFF"/>
    </linearGradient>
    <linearGradient id="paint1_linear_212_357" x1="847.39" y1="63.78" x2="847.39" y2="256.03" gradientUnits="userSpaceOnUse">
    <stop stop-color="#62D4FA"/>
    <stop offset="0.421956" stop-color="#61C2F9"/>
    <stop offset="0.843831" stop-color="#8BACFF"/>
    </linearGradient>
    <linearGradient id="paint2_linear_212_357" x1="767.98" y1="63.7898" x2="767.98" y2="256.03" gradientUnits="userSpaceOnUse">
    <stop stop-color="#62D4FA"/>
    <stop offset="0.421956" stop-color="#61C2F9"/>
    <stop offset="0.843831" stop-color="#8BACFF"/>
    </linearGradient>
    <linearGradient id="paint3_linear_212_357" x1="1086.05" y1="63.7798" x2="1086.05" y2="256.03" gradientUnits="userSpaceOnUse">
    <stop stop-color="#62D4FA"/>
    <stop offset="0.421956" stop-color="#61C2F9"/>
    <stop offset="0.843831" stop-color="#8BACFF"/>
    </linearGradient>
    <linearGradient id="paint4_linear_212_357" x1="370.534" y1="75.189" x2="370.534" y2="244.62" gradientUnits="userSpaceOnUse">
    <stop stop-color="#62D4FA"/>
    <stop offset="0.421956" stop-color="#61C2F9"/>
    <stop offset="0.843831" stop-color="#8BACFF"/>
    </linearGradient>
    <linearGradient id="paint5_linear_212_357" x1="529.33" y1="75.1875" x2="529.33" y2="244.623" gradientUnits="userSpaceOnUse">
    <stop stop-color="#62D4FA"/>
    <stop offset="0.421956" stop-color="#61C2F9"/>
    <stop offset="0.843831" stop-color="#8BACFF"/>
    </linearGradient>
    <linearGradient id="paint6_linear_212_357" x1="648.785" y1="75.1875" x2="648.785" y2="244.621" gradientUnits="userSpaceOnUse">
    <stop stop-color="#62D4FA"/>
    <stop offset="0.421956" stop-color="#61C2F9"/>
    <stop offset="0.843831" stop-color="#8BACFF"/>
    </linearGradient>
    <linearGradient id="paint7_linear_212_357" x1="966.83" y1="75.1982" x2="966.83" y2="244.623" gradientUnits="userSpaceOnUse">
    <stop stop-color="#62D4FA"/>
    <stop offset="0.421956" stop-color="#61C2F9"/>
    <stop offset="0.843831" stop-color="#8BACFF"/>
    </linearGradient>
    <linearGradient id="paint8_linear_212_357" x1="1006.61" y1="75.1787" x2="1006.61" y2="244.62" gradientUnits="userSpaceOnUse">
    <stop stop-color="#62D4FA"/>
    <stop offset="0.421956" stop-color="#61C2F9"/>
    <stop offset="0.843831" stop-color="#8BACFF"/>
    </linearGradient>
    <linearGradient id="paint9_linear_212_357" x1="608.949" y1="86.1494" x2="608.949" y2="233.652" gradientUnits="userSpaceOnUse">
    <stop stop-color="#62D4FA"/>
    <stop offset="0.421956" stop-color="#61C2F9"/>
    <stop offset="0.843831" stop-color="#8BACFF"/>
    </linearGradient>
    <linearGradient id="paint10_linear_212_357" x1="688.581" y1="97.4814" x2="688.581" y2="222.326" gradientUnits="userSpaceOnUse">
    <stop stop-color="#62D4FA"/>
    <stop offset="0.421956" stop-color="#61C2F9"/>
    <stop offset="0.843831" stop-color="#8BACFF"/>
    </linearGradient>
    <linearGradient id="paint11_linear_212_357" x1="410.204" y1="97.4888" x2="410.204" y2="222.335" gradientUnits="userSpaceOnUse">
    <stop stop-color="#62D4FA"/>
    <stop offset="0.421956" stop-color="#61C2F9"/>
    <stop offset="0.843831" stop-color="#8BACFF"/>
    </linearGradient>
    <linearGradient id="paint12_linear_212_357" x1="1046.35" y1="97.4712" x2="1046.35" y2="222.336" gradientUnits="userSpaceOnUse">
    <stop stop-color="#62D4FA"/>
    <stop offset="0.421956" stop-color="#61C2F9"/>
    <stop offset="0.843831" stop-color="#8BACFF"/>
    </linearGradient>
    <linearGradient id="paint13_linear_212_357" x1="1125.76" y1="97.4697" x2="1125.76" y2="222.34" gradientUnits="userSpaceOnUse">
    <stop stop-color="#62D4FA"/>
    <stop offset="0.421956" stop-color="#61C2F9"/>
    <stop offset="0.843831" stop-color="#8BACFF"/>
    </linearGradient>
    <linearGradient id="paint14_linear_212_357" x1="489.608" y1="108.564" x2="489.608" y2="211.231" gradientUnits="userSpaceOnUse">
    <stop stop-color="#62D4FA"/>
    <stop offset="0.421956" stop-color="#61C2F9"/>
    <stop offset="0.843831" stop-color="#8BACFF"/>
    </linearGradient>
    <linearGradient id="paint15_linear_212_357" x1="569.123" y1="119.841" x2="569.123" y2="199.978" gradientUnits="userSpaceOnUse">
    <stop stop-color="#62D4FA"/>
    <stop offset="0.421956" stop-color="#61C2F9"/>
    <stop offset="0.843831" stop-color="#8BACFF"/>
    </linearGradient>
    <linearGradient id="paint16_linear_212_357" x1="728.27" y1="119.827" x2="728.27" y2="199.998" gradientUnits="userSpaceOnUse">
    <stop stop-color="#62D4FA"/>
    <stop offset="0.421956" stop-color="#61C2F9"/>
    <stop offset="0.843831" stop-color="#8BACFF"/>
    </linearGradient>
    <linearGradient id="paint17_linear_212_357" x1="330.791" y1="142.019" x2="330.791" y2="177.623" gradientUnits="userSpaceOnUse">
    <stop stop-color="#62D4FA"/>
    <stop offset="0.421956" stop-color="#61C2F9"/>
    <stop offset="0.843831" stop-color="#8BACFF"/>
    </linearGradient>
    <linearGradient id="paint18_linear_212_357" x1="886.807" y1="142.151" x2="886.807" y2="177.649" gradientUnits="userSpaceOnUse">
    <stop stop-color="#62D4FA"/>
    <stop offset="0.421956" stop-color="#61C2F9"/>
    <stop offset="0.843831" stop-color="#8BACFF"/>
    </linearGradient>
    <linearGradient id="paint19_linear_212_357" x1="1205.17" y1="142.13" x2="1205.17" y2="177.641" gradientUnits="userSpaceOnUse">
    <stop stop-color="#62D4FA"/>
    <stop offset="0.421956" stop-color="#61C2F9"/>
    <stop offset="0.843831" stop-color="#8BACFF"/>
    </linearGradient>
    <linearGradient id="paint20_linear_212_357" x1="926.935" y1="142.205" x2="926.935" y2="177.814" gradientUnits="userSpaceOnUse">
    <stop stop-color="#62D4FA"/>
    <stop offset="0.421956" stop-color="#61C2F9"/>
    <stop offset="0.843831" stop-color="#8BACFF"/>
    </linearGradient>
    <linearGradient id="paint21_linear_212_357" x1="1165.37" y1="142.116" x2="1165.37" y2="177.676" gradientUnits="userSpaceOnUse">
    <stop stop-color="#62D4FA"/>
    <stop offset="0.421956" stop-color="#61C2F9"/>
    <stop offset="0.843831" stop-color="#8BACFF"/>
    </linearGradient>
    <linearGradient id="paint22_linear_212_357" x1="807.504" y1="142.203" x2="807.504" y2="177.74" gradientUnits="userSpaceOnUse">
    <stop stop-color="#62D4FA"/>
    <stop offset="0.421956" stop-color="#61C2F9"/>
    <stop offset="0.843831" stop-color="#8BACFF"/>
    </linearGradient>
    <linearGradient id="paint23_linear_212_357" x1="449.563" y1="142.224" x2="449.563" y2="177.64" gradientUnits="userSpaceOnUse">
    <stop stop-color="#62D4FA"/>
    <stop offset="0.421956" stop-color="#61C2F9"/>
    <stop offset="0.843831" stop-color="#8BACFF"/>
    </linearGradient>
    </defs>
    </svg>